<svg width="22" height="22" viewBox="0 0 22 22" fill="none" xmlns="http://www.w3.org/2000/svg">
<path fill-rule="evenodd" clip-rule="evenodd"
      d="M4.25 1C4.25 0.585786 4.58579 0.25 5 0.25H17C17.4142 0.25 17.75 0.585786 17.75 1V7.25H19C19.7293 7.25 20.4288 7.53973 20.9445 8.05546C21.4603 8.57118 21.75 9.27065 21.75 10V15C21.75 15.7293 21.4603 16.4288 20.9445 16.9445C20.4288 17.4603 19.7293 17.75 19 17.75H17.75V21C17.75 21.4142 17.4142 21.75 17 21.75H5C4.58579 21.75 4.25 21.4142 4.25 21V17.75H3C2.27065 17.75 1.57118 17.4603 1.05546 16.9445C0.539731 16.4288 0.25 15.7293 0.25 15V10C0.25 9.27065 0.539731 8.57118 1.05546 8.05546C1.57118 7.53973 2.27065 7.25 3 7.25H4.25V1ZM5.75 17V20.25H16.25V17V13.75H5.75V17ZM17.75 16.25V13C17.75 12.5858 17.4142 12.25 17 12.25H5C4.58579 12.25 4.25 12.5858 4.25 13V16.25H3C2.66848 16.25 2.35054 16.1183 2.11612 15.8839C1.8817 15.6495 1.75 15.3315 1.75 15V10C1.75 9.66848 1.8817 9.35054 2.11612 9.11612C2.35054 8.8817 2.66848 8.75 3 8.75H5H17H19C19.3315 8.75 19.6495 8.8817 19.8839 9.11612C20.1183 9.35054 20.25 9.66848 20.25 10V15C20.25 15.3315 20.1183 15.6495 19.8839 15.8839C19.6495 16.1183 19.3315 16.25 19 16.25H17.75ZM16.25 1.75V7.25H5.75V1.75H16.25Z"
      fill="#FF5247"/>
</svg>
